<svg xmlns="http://www.w3.org/2000/svg" fill="none" viewBox="0 0 96 96" id="Aws-Iam--Streamline-Svg-Logos" height="24" width="24">
  <desc>
    Aws Iam Streamline Icon: https://streamlinehq.com
  </desc>
  <path fill="url(#a)" d="M95 1H1v94h94V1Z"></path>
  <path fill="#ffffff" d="M17.4506 70.3252h61.1v-44.65h-61.1v44.65Zm63.45-45.825v47c0 .6486-.5252 1.175-1.175 1.175h-63.45c-.6498 0-1.175-.5264-1.175-1.175v-47c0-.6486.5252-1.175 1.175-1.175h63.45c.6498 0 1.175.5264 1.175 1.175Zm-28.2 32.9h17.625v-2.35h-17.625v2.35Zm15.275-7.05h5.875v-2.35h-5.875v2.35Zm-15.275 0h9.4v-2.35h-9.4v2.35Zm-17.625 4.7c0-.6474-.5264-1.175-1.175-1.175-.6486 0-1.175.5276-1.175 1.175 0 .6474.5264 1.175 1.175 1.175.6486 0 1.175-.5276 1.175-1.175Zm2.35 0c0 1.5298-.9858 2.8212-2.35 3.3088v2.5662h-2.35v-2.5674c-1.3642-.4864-2.35-1.7778-2.35-3.3076 0-1.9435 1.5815-3.525 3.525-3.525 1.9434 0 3.525 1.5815 3.525 3.525Zm-14.1 9.3918 21.1429.0082.0024-4.7h-4.6953v-2.35h4.6953l.0023-3.525h-4.6976v-2.35h4.6988l.0012-3.5168-21.143-.0082-.007 16.4418Zm3.525-18.7906 14.1.0058v-8.232c.0012-2.706-3.2935-5.0795-7.05-5.0819h-.0047c-3.7506 0-7.0406 2.3747-7.043 5.0819l-.0023 8.2262Zm-5.875 19.9644.007-18.7906c0-.3126.1234-.611.3443-.8319.2197-.2197.5194-.3431.8307-.3431l2.343.0012.0023-8.2262c.0024-4.0984 4.2159-7.4319 9.393-7.4319h.0047c5.1841.0024 9.4012 3.337 9.4 7.4319v8.2332l2.35.0012c.6498 0 1.175.5264 1.175 1.175l-.0071 18.7906c0 .3125-.1233.611-.3442.8319-.2198.2197-.5194.3431-.8308.3431l-23.4929-.0094c-.6498 0-1.175-.5264-1.175-1.175Zm50.525-22.3156h2.35v-2.35h-2.35v2.35Zm-18.8 0h12.925v-2.35h-12.925v2.35Z"></path>
  <defs>
    <linearGradient id="a" x1="1" x2="9401" y1="9401" y2="1" gradientUnits="userSpaceOnUse">
      <stop stop-color="#bd0816"></stop>
      <stop offset="1" stop-color="#ff5252"></stop>
    </linearGradient>
  </defs>
</svg>