<svg xmlns="http://www.w3.org/2000/svg" fill="none" viewBox="0 0 96 96" id="Aws-Rds--Streamline-Svg-Logos" height="24" width="24">
  <desc>
    Aws Rds Streamline Icon: https://streamlinehq.com
  </desc>
  <path fill="url(#a)" d="M95 1H1v94h94V1Z"></path>
  <path fill="#ffffff" d="m19.1111 17.4501 10.9192 10.9193-1.6614 1.6614-10.9193-10.9193v8.9136h-2.35v-11.75c0-.6486.5252-1.175 1.175-1.175h11.75v2.35h-8.9135Zm61.7885-1.175v11.75h-2.35v-8.9136L67.6303 30.0308l-1.6614-1.6614 10.9193-10.9193h-8.9136v-2.35h11.75c.6498 0 1.175.5264 1.175 1.175Zm-2.35 51.7h2.35v11.75c0 .6486-.5252 1.175-1.175 1.175h-11.75v-2.35h8.9136L65.9689 67.6308l1.6614-1.6614 10.9193 10.9193v-8.9136Zm-.5875-20.8997c0-3.8999-4.5026-7.7527-12.0437-10.306l.7531-2.2254c8.668 2.934 13.6406 7.5012 13.6406 12.5314 0 5.0313-4.9726 9.5997-13.6417 12.5325l-.7532-2.2266c7.5423-2.5521 12.0449-6.4038 12.0449-10.3059Zm-59.8592 0c0 3.7365 4.2147 7.4871 11.2753 10.0345l-.7978 2.2101c-8.1522-2.941-12.8275-7.4036-12.8275-12.2446 0-4.8399 4.6753-9.3025 12.8275-12.2447l.7978 2.2102c-7.0606 2.5486-11.2753 6.2991-11.2753 10.0345Zm11.9274 20.5554L19.1111 78.5501h8.9135v2.35h-11.75c-.6498 0-1.175-.5264-1.175-1.175v-11.75h2.35v8.9136l10.9193-10.9193 1.6614 1.6614Zm17.9693-29.8697c-8.3965 0-12.925-2.169-12.925-3.055 0-.8871 4.5285-3.055 12.925-3.055 8.3954 0 12.925 2.1679 12.925 3.055 0 .886-4.5296 3.055-12.925 3.055Zm.0341 9.1004c-8.0394 0-12.9591-2.196-12.9591-3.391v-5.7117c2.894 1.5968 8.0276 2.3523 12.925 2.3523 4.8974 0 10.031-.7555 12.925-2.3523v5.7117c0 1.1961-4.8939 3.391-12.8909 3.391Zm0 8.9723c-8.0394 0-12.9591-2.1961-12.9591-3.391v-5.7799c2.8564 1.6791 7.9219 2.5486 12.9591 2.5486 5.009 0 10.0451-.8683 12.8909-2.5427v5.774c0 1.1961-4.8939 3.391-12.8909 3.391Zm-.0341 8.05c-8.3625 0-12.925-2.2478-12.925-3.4028v-4.8458c2.8564 1.6791 7.9219 2.5486 12.9591 2.5486 5.009 0 10.0451-.8671 12.8909-2.5427v4.8399c0 1.155-4.5625 3.4028-12.925 3.4028Zm0-34.5827c-7.3567 0-15.275 1.6909-15.275 5.405V60.481c0 3.7764 7.6845 5.7528 15.275 5.7528 7.5905 0 15.275-1.9764 15.275-5.7528V34.7061c0-3.7141-7.9183-5.405-15.275-5.405Z"></path>
  <defs>
    <linearGradient id="a" x1="1" x2="9401" y1="9401" y2="1" gradientUnits="userSpaceOnUse">
      <stop stop-color="#2e27ad"></stop>
      <stop offset="1" stop-color="#527fff"></stop>
    </linearGradient>
  </defs>
</svg>