<svg xmlns="http://www.w3.org/2000/svg" fill="none" viewBox="0 0 96 96" id="Aws-Route53--Streamline-Svg-Logos" height="24" width="24">
  <desc>
    Aws Route53 Streamline Icon: https://streamlinehq.com
  </desc>
  <path fill="url(#a)" d="M95 1H1v94h94V1Z"></path>
  <path fill="#ffffff" d="M58.2132 48.7985c.8683.8029 1.3031 1.8784 1.3031 3.229 0 1.4693-.5288 2.6424-1.5851 3.5193-1.0575.8781-2.4781 1.3165-4.2605 1.3165-1.4089 0-2.8036-.3009-4.1831-.9004v-1.7996c1.6345.5407 3.028.8099 4.1831.8099 1.1397 0 2.0163-.2551 2.6308-.7641.6145-.5101.9212-1.2377.9212-2.1816 0-1.8149-1.1457-2.7224-3.4404-2.7224-.7191 0-1.4312.0377-2.1362.1117v-1.4834l4.7235-5.152h-6.6563v-1.8443h9.152v1.7773l-4.633 4.904c.0764-.0153.1492-.0224.2256-.0224h.2244c1.4852 0 2.6614.4009 3.5309 1.2025Zm-13.0637-.3926c.913.8546 1.3701 2.0312 1.3701 3.5299 0 1.4705-.5311 2.6589-1.5968 3.5663-1.0646.9075-2.4652 1.3612-4.2042 1.3612-1.5275 0-2.9598-.3009-4.2946-.9004v-1.7996c1.6638.5407 3.0879.8099 4.2723.8099 1.1398 0 2.0128-.2575 2.6191-.7758.6074-.5172.9118-1.2625.9118-2.2381 0-1.0649-.2855-1.8372-.8554-2.3168-.5699-.4796-1.4993-.7206-2.7883-.7206-.9294 0-2.0903.0765-3.4851.2257V47.663l.4277-6.7259h8.2074v1.8443h-6.3191l-.2926 4.5666c.8248-.1493 1.5663-.2245 2.2254-.2245 1.6192 0 2.887.4267 3.8023 1.2824ZM62.0496 64.894c-5.7035 1.025-10.6984 3.3477-14.0495 5.2401-3.3523-1.8924-8.3472-4.2151-14.0495-5.2401-1.605-.288-9.6044-1.9583-9.6044-6.5825 0-2.1429.7672-3.564 2.2407-6.1018 1.7601-3.035 3.9503-6.8129 3.9503-12.2517 0-3.8873-1.0187-7.6146-3.0303-11.0928.2362-.2915.4771-.5865.7191-.8839 2.9798 1.4893 6.0818 2.2439 9.2355 2.2439 3.854 0 7.3955-1.012 10.5386-3.0091 3.1419 1.9971 6.6834 3.0091 10.5374 3.0091 3.1537 0 6.2569-.7546 9.2367-2.2439.2408.2974.4817.5924.7179.8839-2.0116 3.4782-3.0303 7.2055-3.0303 11.0928 0 5.4388 2.1902 9.2167 3.9538 12.2564 1.47 2.5331 2.2372 3.9542 2.2372 6.0971 0 4.6242-7.9993 6.2945-9.6032 6.5825Zm5.7622-24.936c0-3.7109 1.0469-7.2679 3.109-10.5721.2679-.4266.2338-.9756-.0858-1.3658-.5969-.7312-1.2231-1.5011-1.8412-2.2663-.3584-.4431-.9811-.5654-1.4816-.2903-2.8941 1.5998-5.9126 2.4108-8.9747 2.4108-3.6942 0-6.9219-.9932-9.8688-3.035-.4019-.2786-.9365-.2786-1.3383 0-2.9469 2.0418-6.1747 3.035-9.8689 3.035-3.062 0-6.0806-.811-8.9746-2.4108-.4994-.2751-1.1233-.1528-1.4817.2903-.6181.7652-1.2443 1.5351-1.8412 2.2663-.3185.3902-.3537.9392-.0858 1.3658 2.0633 3.3042 3.109 6.8612 3.109 10.5721 0 4.8064-2.0151 8.2798-3.6342 11.0751-1.5863 2.7294-2.5568 4.5419-2.5568 7.2784 0 6.3321 8.8313 8.4115 11.5385 8.8969 5.7105 1.0262 10.6972 3.4465 13.8744 5.2955.1821.1069.3865.1598.591.1598.2033 0 .4077-.0529.591-.1598 3.1772-1.849 8.1628-4.2693 13.8733-5.2955 2.7072-.4854 11.5384-2.5648 11.5384-8.8969 0-2.7365-.9705-4.549-2.5568-7.282-1.6191-2.7917-3.6342-6.2651-3.6342-11.0715ZM63.268 71.6846c-7.2039 1.2953-13.2434 5.1696-15.2679 6.5884-2.0257-1.4188-8.0652-5.2931-15.2691-6.5884-14.1799-2.5472-15.2809-10.88-15.2809-13.3731 0-4.1012 1.6109-6.8764 3.169-9.5623 1.4852-2.559 3.0209-5.2061 3.0209-8.7912 0-5.6634-3.27-9.6634-4.8833-11.2914 1.6967-2.0641 5.9831-7.2902 8.0969-10.0137 3.2031 3.0233 6.9266 4.6724 10.6079 4.6724 4.0867 0 7.466-1.6632 10.5386-5.2119 3.0715 3.5487 6.4508 5.2119 10.5374 5.2119 3.6813 0 7.4049-1.6491 10.6091-4.6724 2.1138 2.7235 6.399 7.9496 8.0957 10.0137-1.6132 1.628-4.8833 5.628-4.8833 11.2914 0 3.5851 1.5369 6.2322 3.021 8.7912 1.5592 2.6859 3.1701 5.4611 3.1701 9.5623 0 2.4931-1.1022 10.8259-15.2821 13.3731Zm14.1447-24.1144c-1.4511-2.5014-2.7037-4.6607-2.7037-7.6122 0-6.2135 4.8363-10.2323 4.8833-10.27.2433-.1974.3984-.4842.4313-.7969.0305-.3127-.0635-.6242-.2632-.8663-.0788-.0941-7.7809-9.4318-9.5457-11.8509-.2068-.2833-.5276-.4596-.8778-.4808-.3513-.0258-.6897.114-.9294.3703-2.961 3.1666-6.4648 4.911-9.87 4.911-3.7647 0-6.7257-1.6774-9.6044-5.4388-.4454-.5807-1.4206-.5807-1.866 0-2.8799 3.7614-5.8409 5.4388-9.6056 5.4388-3.4051 0-6.909-1.7444-9.87-4.911-.2397-.2563-.5804-.402-.9294-.3703-.349.0212-.6709.1975-.8777.4808-1.7649 2.4191-9.467 11.7568-9.5457 11.8509-.1986.2421-.2926.5536-.2609.8651.0306.3115.1845.5983.4265.7958.0494.04 4.8857 4.0588 4.8857 10.2723 0 2.9515-1.2526 5.1108-2.7037 7.6122-1.6344 2.8164-3.4862 6.0077-3.4862 10.7413 0 7.8861 6.4355 13.7504 17.2161 15.6875 8.1157 1.4588 14.9014 6.6061 14.9683 6.659.2104.161.463.2421.7156.2421.2514 0 .5041-.0811.7156-.2433.0681-.0517 6.8302-5.1955 14.9671-6.6578 10.7807-1.9371 17.2173-7.8014 17.2173-15.6875 0-4.7336-1.853-7.9249-3.4874-10.7413Z"></path>
  <defs>
    <linearGradient id="a" x1="1" x2="9401" y1="9401" y2="1" gradientUnits="userSpaceOnUse">
      <stop stop-color="#4d27a8"></stop>
      <stop offset="1" stop-color="#a166ff"></stop>
    </linearGradient>
  </defs>
</svg>