<svg xmlns="http://www.w3.org/2000/svg" fill="none" viewBox="0 0 24 24" id="Centos-Icon--Streamline-Svg-Logos" height="24" width="24">
  <desc>
    Centos Icon Streamline Icon: https://streamlinehq.com
  </desc>
  <path fill="#932279" d="m10.148975 11.14175 0.849975 0.84525 -0.849975 0.845075H4.165775v2.815825L0.5169675 11.987 4.165775 8.387525V11.14175h5.9832Zm2.63 -7.190575h7.26985v7.27H12.778975v-7.27Z" stroke-width="0.25"></path>
  <path fill="#efa724" d="m12.858075 10.148975 -0.845075 0.849975 -0.845075 -0.849975V4.165775h-2.816L12.013 0.5169675 15.6123 4.165775H12.858075v5.9832Zm-0.079275 2.63h7.26985V20.049H12.7788V12.778975Z" stroke-width="0.25"></path>
  <path fill="#262577" d="m13.8512 12.8582 -0.85015 -0.845075 0.85015 -0.845075h5.983025v-2.816l3.648975 3.661075 -3.648975 3.599275V12.8582H13.8512Zm-9.900025 -0.079275h7.26985v7.27H3.951175v-7.27Z" stroke-width="0.25"></path>
  <path fill="#9ccd2a" d="m11.14175 13.8512 0.845075 -0.85015 0.84525 0.85015v5.983175h2.815825L11.986825 23.4832 8.3877 19.834375H11.14175V13.8512ZM3.951175 3.951175h7.26985v7.27H3.951175v-7.27Z" stroke-width="0.25"></path>
  <path fill="#ffffff" d="M3.691525 3.691525h7.7892v7.7892H3.691525V3.691525Zm0.5192 7.27h6.75065V4.2109H4.210725v6.750625Zm8.308575 -7.27h7.789225v7.7892H12.5193V3.691525Zm0.519225 7.27h6.750625V4.2109H13.038525v6.750625Zm-0.519225 1.557775h7.789225v7.789375H12.5193V12.5193Zm0.519225 7.26985h6.750625V13.038525H13.038525v6.750625Zm-9.347 -7.26985h7.7892v7.789375H3.691525V12.5193Zm0.5192 7.26985h6.75065V13.038525H4.210725v6.750625Z" stroke-width="0.25"></path>
  <path fill="#ffffff" d="M5.75795 17.50795 0.25 12l5.507775 -5.507775L11.265725 12 5.75795 17.50795ZM0.9844375 12 5.75795 16.7735 10.5313 12 5.757775 7.22665 0.9844375 12ZM12 11.265725 6.492225 5.75795 12 0.25l5.507775 5.50795L12 11.265725ZM7.22665 5.75795 12 10.5313l4.7735 -4.77335L12 0.9844375 7.22665 5.75795Zm11.015575 11.75L12.734425 12l5.5078 -5.507775L23.75 12 18.242225 17.50795ZM13.4687 12l4.773525 4.7735L23.015575 12 18.242225 7.22665 13.4687 12ZM12 23.75 6.492225 18.242225 12 12.734425l5.507775 5.5078L12 23.75ZM7.22665 18.242225 12 23.015575l4.7735 -4.77335L12 13.468875 7.22665 18.242225Z" stroke-width="0.25"></path>
</svg>