<svg xmlns="http://www.w3.org/2000/svg" fill="none" viewBox="0 0 24 24" id="Discord-Icon--Streamline-Svg-Logos" height="24" width="24">
  <desc>
    Discord Icon Streamline Icon: https://streamlinehq.com
  </desc>
  <path fill="#5865f2" d="M20.156725 4.427875c-1.5212 -0.711725 -3.147725 -1.228975 -4.848225 -1.523525 -0.20885 0.377575 -0.452825 0.885425 -0.62105 1.289425 -1.807675 -0.27185 -3.598725 -0.27185 -5.37315 0 -0.168175 -0.404 -0.417725 -0.91185 -0.628425 -1.289425 -1.702325 0.29455 -3.33075 0.8137 -4.851925 1.5273C0.76567 9.0682 -0.066086 13.5896 0.3497925 18.046775c2.0350375 1.519725 4.0072325 2.4429 5.9461575 3.047 0.478725 -0.658875 0.905675 -1.35925 1.2735 -2.0974 -0.700525 -0.266175 -1.371475 -0.594675 -2.00545 -0.976 0.1682 -0.124625 0.332725 -0.254875 0.49165 -0.388925 3.86675 1.808575 8.068075 1.808575 11.8886 0 0.160825 0.13405 0.3253 0.2643 0.49165 0.388925 -0.635825 0.3832 -1.3086 0.711675 -2.009125 0.9779 0.3678 0.73625 0.792925 1.43855 1.2735 2.097375 1.940775 -0.6041 3.9148 -1.52725 5.94985 -3.048875 0.487975 -5.167025 -0.8336 -9.646875 -3.4934 -13.6189Zm-12.0605 10.877775c-1.16075 0 -2.112675 -1.08365 -2.112675 -2.40325 0 -1.3196 0.9316 -2.4051 2.112675 -2.4051 1.181125 0 2.133 1.0836 2.112675 2.4051 0.00185 1.3196 -0.93155 2.40325 -2.112675 2.40325Zm7.80745 0c-1.16075 0 -2.112675 -1.08365 -2.112675 -2.40325 0 -1.3196 0.931575 -2.4051 2.112675 -2.4051 1.1811 0 2.133 1.0836 2.112675 2.4051 0 1.3196 -0.931575 2.40325 -2.112675 2.40325Z" stroke-width="0.25"></path>
</svg>